<svg xmlns="http://www.w3.org/2000/svg" width="17.188" height="25" viewBox="0 0 17.188 25">
  <path id="audio-icon" d="M7.813-12.5a.76.76,0,0,1,.562.22.76.76,0,0,1,.22.562v2.344A8.277,8.277,0,0,1,6.47-3.735a8.37,8.37,0,0,1-5.3,2.856V.781H3.906a.752.752,0,0,1,.781.781v.781a.752.752,0,0,1-.781.781H-3.906a.76.76,0,0,1-.562-.22.76.76,0,0,1-.22-.562V1.563A.76.76,0,0,1-4.468,1a.76.76,0,0,1,.562-.22h2.734V-.879a8.133,8.133,0,0,1-5.3-3A8.959,8.959,0,0,1-8.594-9.766v-1.953a.76.76,0,0,1,.22-.562.76.76,0,0,1,.562-.22h.781a.76.76,0,0,1,.562.22.76.76,0,0,1,.22.562v2.051A6.6,6.6,0,0,0-4.639-5.273a5.681,5.681,0,0,0,4,2.1A5.931,5.931,0,0,0,4.2-4.761,6.017,6.017,0,0,0,6.25-9.375v-2.344a.76.76,0,0,1,.22-.562.76.76,0,0,1,.562-.22ZM3.32-6.055A4.52,4.52,0,0,1,0-4.687,4.52,4.52,0,0,1-3.32-6.055a4.52,4.52,0,0,1-1.367-3.32v-7.812a4.52,4.52,0,0,1,1.367-3.32A4.52,4.52,0,0,1,0-21.875a4.52,4.52,0,0,1,3.32,1.367,4.52,4.52,0,0,1,1.367,3.32v7.813A4.52,4.52,0,0,1,3.32-6.055ZM-2.344-17.187v7.813a2.26,2.26,0,0,0,.684,1.66A2.26,2.26,0,0,0,0-7.031a2.26,2.26,0,0,0,1.66-.684,2.26,2.26,0,0,0,.684-1.66v-7.812a2.26,2.26,0,0,0-.684-1.66A2.26,2.26,0,0,0,0-19.531a2.26,2.26,0,0,0-1.66.684A2.26,2.26,0,0,0-2.344-17.187Z" transform="translate(8.594 21.875)" fill="#fff"/>
</svg>
