<svg xmlns="http://www.w3.org/2000/svg" width="25.019" height="25.019" viewBox="0 0 25.019 25.019">
  <path id="call-icon" d="M10.791-20.752a2.06,2.06,0,0,1,1.27.757,2.236,2.236,0,0,1,.488,1.44,21.092,21.092,0,0,1-1.733,8.423A21.962,21.962,0,0,1,6.177-3.2,21.7,21.7,0,0,1-.732,1.416,21.3,21.3,0,0,1-9.18,3.125a2.167,2.167,0,0,1-1.392-.488,2.06,2.06,0,0,1-.757-1.27L-12.4-3.223a2.129,2.129,0,0,1,.171-1.514,2.035,2.035,0,0,1,1.147-1.025L-6.152-7.91a2.115,2.115,0,0,1,1.416-.1,2.338,2.338,0,0,1,1.221.781l1.563,1.953a14.9,14.9,0,0,0,6.1-6.1L2.2-12.939A2.2,2.2,0,0,1,1.44-14.16a2.462,2.462,0,0,1,.073-1.416l2.148-4.932a2.266,2.266,0,0,1,1.05-1.147A2.055,2.055,0,0,1,6.2-21.826ZM-9.082.781A18.874,18.874,0,0,0,.586-1.807,19.169,19.169,0,0,0,7.617-8.838a18.874,18.874,0,0,0,2.588-9.668L5.762-19.531,3.711-14.7l3.32,2.686A19.406,19.406,0,0,1,3.2-6.25,20.81,20.81,0,0,1-2.588-2.393l-2.686-3.32-4.834,2.051Z" transform="translate(12.47 21.894)" fill="#fff"/>
</svg>
