<svg xmlns="http://www.w3.org/2000/svg" width="556" height="458.179" viewBox="0 0 556 458.179">
  <g id="camera-off" transform="translate(-471 -2066)">
    <g id="Group_3" data-name="Group 3">
      <path id="Subtraction_1" data-name="Subtraction 1" d="M480.481,434H53.815a42.524,42.524,0,0,1-13.262-2.108,23.418,23.418,0,0,0,7.289-4.014L171.9,327.416a128.675,128.675,0,0,0,42.25,31.085A127.928,127.928,0,0,0,370.514,166.577L487.436,71.9A42.661,42.661,0,0,1,523.148,114V391.328A42.716,42.716,0,0,1,480.481,434ZM437.814,135.329a21.333,21.333,0,1,0,21.334,21.333A21.357,21.357,0,0,0,437.814,135.329ZM11.9,399.351v0a42.884,42.884,0,0,1-.755-8.02V114A42.715,42.715,0,0,1,53.815,71.33H121.47a31.832,31.832,0,0,0,22.635-9.375l39-39A53,53,0,0,1,220.824,7.33H313.47a52.994,52.994,0,0,1,37.719,15.625l39,39a31.832,31.832,0,0,0,22.635,9.375h.627l-77.508,62.765A127.991,127.991,0,0,0,147.268,286.881l-129,104.466a23.3,23.3,0,0,0-6.358,8Zm255.244-50.688a107.365,107.365,0,0,1-22.7-2.42A106.144,106.144,0,0,1,204.6,328.407a107.46,107.46,0,0,1-16.142-14.4l165.5-134.016A106.169,106.169,0,0,1,373.814,242a107.456,107.456,0,0,1-2.167,21.5,106.083,106.083,0,0,1-16.05,38.141,106.978,106.978,0,0,1-46.93,38.646,106.133,106.133,0,0,1-20.023,6.215A107.463,107.463,0,0,1,267.147,348.663ZM164.93,272.578h0a106.681,106.681,0,0,1,153.378-124.2Z" transform="translate(492.853 2066.338)" fill="#fff"/>
      <rect id="Rectangle_2" data-name="Rectangle 2" width="22.019" height="670.356" rx="11.009" transform="translate(992.144 2085.199) rotate(51)" fill="#fff"/>
    </g>
    <g id="Rectangle_4" data-name="Rectangle 4" transform="translate(471 2066)" fill="#fff" stroke="#707070" stroke-width="1" opacity="0">
      <rect width="556" height="458" stroke="none"/>
      <rect x="0.5" y="0.5" width="555" height="457" fill="none"/>
    </g>
  </g>
</svg>
