<svg id="cancel" xmlns="http://www.w3.org/2000/svg" width="122.414" height="122.414" viewBox="0 0 122.414 122.414">
  <g id="Group_7" data-name="Group 7">
    <path id="Path_2294" data-name="Path 2294" d="M104.485,17.929a61.2,61.2,0,1,0-86.555,86.555,61.2,61.2,0,1,0,86.555-86.555Zm-4.92,81.635A54.246,54.246,0,0,1,22.85,22.85,54.246,54.246,0,1,1,99.564,99.564Z" fill="#fff"/>
    <path id="Path_2295" data-name="Path 2295" d="M183.892,129.949a3.467,3.467,0,0,0-4.92,0L156.92,152l-22.051-22.051a3.479,3.479,0,0,0-4.92,4.92L152,156.92l-22.051,22.051a3.491,3.491,0,0,0,2.447,5.951,3.393,3.393,0,0,0,2.447-1.03l22.051-22.051,22.051,22.051a3.5,3.5,0,0,0,2.447,1.03,3.351,3.351,0,0,0,2.447-1.03,3.467,3.467,0,0,0,0-4.92l-22-22.051,22.051-22.051A3.467,3.467,0,0,0,183.892,129.949Z" transform="translate(-95.713 -95.713)" fill="#fff"/>
  </g>
</svg>
