<svg xmlns="http://www.w3.org/2000/svg" width="25.012" height="21.875" viewBox="0 0 25.012 21.875">
  <path id="chat-icon" d="M5.518-13.672a.76.76,0,0,1,.562.22.76.76,0,0,1,.22.562v.781a.76.76,0,0,1-.22.562.76.76,0,0,1-.562.22H-5.42a.76.76,0,0,1-.562-.22.76.76,0,0,1-.22-.562v-.781a.76.76,0,0,1,.22-.562.76.76,0,0,1,.562-.22ZM.83-8.984a.76.76,0,0,1,.562.22.76.76,0,0,1,.22.562v.781a.76.76,0,0,1-.22.562.76.76,0,0,1-.562.22H-5.42a.76.76,0,0,1-.562-.22.76.76,0,0,1-.22-.562V-8.2a.76.76,0,0,1,.22-.562.76.76,0,0,1,.562-.22Zm-9.619-8.35A13.56,13.56,0,0,1,.049-20.312a13.56,13.56,0,0,1,8.838,2.979,8.973,8.973,0,0,1,3.662,7.178A8.973,8.973,0,0,1,8.887-2.979,13.56,13.56,0,0,1,.049,0,15.517,15.517,0,0,1-4.492-.684a11.535,11.535,0,0,1-6.787,2.246A1.07,1.07,0,0,1-12.354.854a1.094,1.094,0,0,1,.2-1.245q.1-.1.464-.513a10.46,10.46,0,0,0,.928-1.318A10.806,10.806,0,0,0-9.863-4a8.729,8.729,0,0,1-2.588-6.152A8.973,8.973,0,0,1-8.789-17.334ZM.049-2.344A11.411,11.411,0,0,0,7.227-4.639a6.79,6.79,0,0,0,2.979-5.518,6.79,6.79,0,0,0-2.979-5.518A11.411,11.411,0,0,0,.049-17.969a11.411,11.411,0,0,0-7.178,2.295,6.79,6.79,0,0,0-2.979,5.518A6.447,6.447,0,0,0-8.154-5.615l.977,1.074-.488,1.367a16.1,16.1,0,0,1-.977,2A9.946,9.946,0,0,0-5.859-2.637l.977-.635,1.123.342A12.574,12.574,0,0,0,.049-2.344Z" transform="translate(12.463 20.313)" fill="#fff"/>
</svg>
