<svg xmlns="http://www.w3.org/2000/svg"  viewBox="0 0 13.125 13.125">
  <path id="completed-icon" d="M13.008-8.232A.278.278,0,0,1,13.125-8a.364.364,0,0,1-.117.264L4.424.85a.317.317,0,0,1-.234.088A.428.428,0,0,1,3.926.85L.117-2.988A.278.278,0,0,1,0-3.223a.364.364,0,0,1,.117-.264l.791-.791a.364.364,0,0,1,.264-.117.278.278,0,0,1,.234.117L4.189-1.494l7.529-7.559a.317.317,0,0,1,.234-.088.428.428,0,0,1,.264.088ZM3.867-4.775,1.055-7.617a.278.278,0,0,1-.117-.234.364.364,0,0,1,.117-.264l.82-.791a.35.35,0,0,1,.249-.117.265.265,0,0,1,.22.117L4.131-7.148,9.053-12.1a.317.317,0,0,1,.234-.088.428.428,0,0,1,.264.088l.791.85a.265.265,0,0,1,.117.22.35.35,0,0,1-.117.249L4.365-4.775a.317.317,0,0,1-.234.088A.428.428,0,0,1,3.867-4.775Z" transform="translate(0 12.188)" fill="#58b26e"/>
</svg>
