<svg xmlns="http://www.w3.org/2000/svg" viewBox="0 0 21.875 21.875">
  <path id="expand-icon" d="M0-13.086v-6.055a1.13,1.13,0,0,1,.342-.83,1.13,1.13,0,0,1,.83-.342H7.227a.518.518,0,0,1,.586.586v1.953a.518.518,0,0,1-.586.586h-4.1v4.1a.518.518,0,0,1-.586.586H.586A.518.518,0,0,1,0-13.086Zm14.063-6.641a.518.518,0,0,1,.586-.586H20.7a1.13,1.13,0,0,1,.83.342,1.13,1.13,0,0,1,.342.83v6.055a.518.518,0,0,1-.586.586H19.336a.518.518,0,0,1-.586-.586v-4.1h-4.1a.518.518,0,0,1-.586-.586ZM21.289-6.25a.518.518,0,0,1,.586.586V.391a1.13,1.13,0,0,1-.342.83,1.13,1.13,0,0,1-.83.342H14.648a.518.518,0,0,1-.586-.586V-.977a.518.518,0,0,1,.586-.586h4.1v-4.1a.518.518,0,0,1,.586-.586ZM7.813.977a.518.518,0,0,1-.586.586H1.172a1.13,1.13,0,0,1-.83-.342A1.13,1.13,0,0,1,0,.391V-5.664A.518.518,0,0,1,.586-6.25H2.539a.518.518,0,0,1,.586.586v4.1h4.1a.518.518,0,0,1,.586.586Z" transform="translate(0 20.313)" fill="#fff"/>
</svg>
