<svg xmlns="http://www.w3.org/2000/svg"  viewBox="0 0 21.875 21.875">
  <path id="Path_80" data-name="Path 80" d="M-47.363-12.5h-6.055a1.13,1.13,0,0,1-.83-.342,1.13,1.13,0,0,1-.342-.83v-6.055A.518.518,0,0,1-54-20.312h1.953a.518.518,0,0,1,.586.586v4.1h4.1a.518.518,0,0,1,.586.586v1.953A.518.518,0,0,1-47.363-12.5ZM-60.84-13.672a1.13,1.13,0,0,1-.342.83,1.13,1.13,0,0,1-.83.342h-6.055a.518.518,0,0,1-.586-.586v-1.953a.518.518,0,0,1,.586-.586h4.1v-4.1a.518.518,0,0,1,.586-.586h1.953a.518.518,0,0,1,.586.586Zm0,14.648a.518.518,0,0,1-.586.586h-1.953a.518.518,0,0,1-.586-.586v-4.1h-4.1a.518.518,0,0,1-.586-.586V-5.664a.518.518,0,0,1,.586-.586h6.055a1.13,1.13,0,0,1,.83.342,1.13,1.13,0,0,1,.342.83Zm9.375,0a.518.518,0,0,1-.586.586H-54A.518.518,0,0,1-54.59.977V-5.078a1.13,1.13,0,0,1,.342-.83,1.13,1.13,0,0,1,.83-.342h6.055a.518.518,0,0,1,.586.586v1.953a.518.518,0,0,1-.586.586h-4.1Z" transform="translate(68.652 20.313)" fill="#fff"/>
</svg>
