<svg xmlns="http://www.w3.org/2000/svg" viewBox="0 0 25.049 18.018">
  <path id="Path_85" data-name="Path 85" d="M24.854-12.891,20.361-8.4a.5.5,0,0,1-.83,0l-.342-.342a.5.5,0,0,1,0-.83l2.979-2.93H.635a.518.518,0,0,1-.586-.586v-.391a.518.518,0,0,1,.586-.586H22.168l-2.979-2.93a.5.5,0,0,1,0-.83l.342-.342a.5.5,0,0,1,.83,0l4.492,4.492A.457.457,0,0,1,24.854-12.891ZM.244-5.078a.457.457,0,0,1,0-.781l4.492-4.492a.5.5,0,0,1,.83,0l.342.342a.5.5,0,0,1,0,.83L2.93-6.25H24.463a.518.518,0,0,1,.586.586v.391a.518.518,0,0,1-.586.586H2.93l2.979,2.93a.5.5,0,0,1,0,.83l-.342.342a.5.5,0,0,1-.83,0Z" transform="translate(-0.024 18.384)" fill="#58b26e"/>
</svg>
