<svg xmlns="http://www.w3.org/2000/svg" width="18.406" height="18.406" viewBox="0 0 18.406 18.406">
  <path id="Path_86" data-name="Path 86" d="M23.969,3.381a9.228,9.228,0,0,1,13.044-.019A8.871,8.871,0,0,1,39.7,9.875a8.871,8.871,0,0,1-2.69,6.513,9.228,9.228,0,0,1-13.025,0A8.871,8.871,0,0,1,21.3,9.875,8.84,8.84,0,0,1,23.969,3.381ZM25.23,15.145A7.246,7.246,0,0,0,30.5,17.3a7.153,7.153,0,0,0,5.251-2.171,7.153,7.153,0,0,0,2.171-5.251,7.153,7.153,0,0,0-2.171-5.251,7.436,7.436,0,0,0-10.5,0,7.153,7.153,0,0,0-2.171,5.251A7.246,7.246,0,0,0,25.23,15.145Zm9.24-7.311a2.536,2.536,0,0,1-1.336,2.3,6.572,6.572,0,0,0-.928.557.8.8,0,0,0-.408.594v.223a.443.443,0,0,1-.445.445H29.646a.443.443,0,0,1-.445-.445v-.334a2.179,2.179,0,0,1,.148-.816,1.774,1.774,0,0,1,.482-.668,6.321,6.321,0,0,1,.52-.427,5.514,5.514,0,0,1,.631-.353l.445-.278a3.793,3.793,0,0,0,.315-.223.653.653,0,0,0,.223-.278.946.946,0,0,0,.056-.334.867.867,0,0,0-.464-.742,1.855,1.855,0,0,0-1.021-.3,1.888,1.888,0,0,0-.724.13,1.626,1.626,0,0,0-.538.353q-.223.223-.557.631a.374.374,0,0,1-.594.074l-1.039-.779a.432.432,0,0,1-.111-.631,4.313,4.313,0,0,1,3.748-2A3.959,3.959,0,0,1,33.3,5.5,2.933,2.933,0,0,1,34.471,7.834Zm-2.895,5.121a1.412,1.412,0,0,1,.482,1.076A1.548,1.548,0,1,1,30.5,12.473,1.412,1.412,0,0,1,31.576,12.955Z" transform="translate(-21.297 -0.672)" fill="#fd5a7f"/>
</svg>
