<svg xmlns="http://www.w3.org/2000/svg" width="10.656" height="10.656" viewBox="0 0 10.656 10.656">
  <path id="Path_80" data-name="Path 80" d="M1.719-7.885A5.153,5.153,0,0,1,5.5-9.453,5.136,5.136,0,0,1,9.271-7.9a5.136,5.136,0,0,1,1.558,3.771A5.136,5.136,0,0,1,9.271-.354,5.136,5.136,0,0,1,5.5,1.2,5.136,5.136,0,0,1,1.729-.354,5.136,5.136,0,0,1,.172-4.125,5.118,5.118,0,0,1,1.719-7.885Zm.73,6.811A4.2,4.2,0,0,0,5.5.172,4.141,4.141,0,0,0,8.54-1.085,4.141,4.141,0,0,0,9.8-4.125,4.141,4.141,0,0,0,8.54-7.165,4.141,4.141,0,0,0,5.5-8.422,4.141,4.141,0,0,0,2.46-7.165,4.141,4.141,0,0,0,1.2-4.125,4.2,4.2,0,0,0,2.449-1.074ZM4.855-6.811A.885.885,0,0,1,5.5-7.09a.867.867,0,0,1,.634.269.867.867,0,0,1,.269.634.867.867,0,0,1-.269.634.867.867,0,0,1-.634.269.867.867,0,0,1-.634-.269A.867.867,0,0,1,4.6-6.187.849.849,0,0,1,4.855-6.811ZM6.7-1.633a.228.228,0,0,1-.258.258H4.555A.228.228,0,0,1,4.3-1.633v-.516a.228.228,0,0,1,.258-.258h.258V-3.781H4.555A.228.228,0,0,1,4.3-4.039v-.516a.228.228,0,0,1,.258-.258H5.93a.228.228,0,0,1,.258.258v2.148h.258a.228.228,0,0,1,.258.258Z" transform="translate(-0.172 9.453)" fill="#25222d"/>
</svg>
