<svg xmlns="http://www.w3.org/2000/svg" width="25" height="18.75" viewBox="0 0 25 18.75">
  <path id="menu-icon" d="M-11.719-15.625a.76.76,0,0,1-.562-.22.76.76,0,0,1-.22-.562v-1.562a.76.76,0,0,1,.22-.562.76.76,0,0,1,.562-.22H8.594a.76.76,0,0,1,.562.22.76.76,0,0,1,.22.562v1.563a.76.76,0,0,1-.22.562.76.76,0,0,1-.562.22Zm23.438,4.688a.76.76,0,0,1,.562.22.76.76,0,0,1,.22.562v1.563a.76.76,0,0,1-.22.562.76.76,0,0,1-.562.22H-8.594a.76.76,0,0,1-.562-.22.76.76,0,0,1-.22-.562v-1.562a.76.76,0,0,1,.22-.562.76.76,0,0,1,.562-.22ZM8.594-3.125a.76.76,0,0,1,.562.22.76.76,0,0,1,.22.562V-.781a.76.76,0,0,1-.22.562A.76.76,0,0,1,8.594,0H-11.719a.76.76,0,0,1-.562-.22.76.76,0,0,1-.22-.562V-2.344a.76.76,0,0,1,.22-.562.76.76,0,0,1,.562-.22Z" transform="translate(12.5 18.75)" fill="#fff"/>
</svg>
