<svg xmlns="http://www.w3.org/2000/svg"  viewBox="0 0 16 16">
  <path id="OFFERING-icon" d="M-.937-6.75A2.026,2.026,0,0,1-1.844-7.3a1.562,1.562,0,0,1-.437-.922,1.724,1.724,0,0,1,.359-1.328A1.611,1.611,0,0,1-.75-10.187v-.562a.487.487,0,0,1,.141-.359A.487.487,0,0,1-.25-11.25h.5a.487.487,0,0,1,.359.141.487.487,0,0,1,.141.359v.563a2.289,2.289,0,0,1,1,.344.37.37,0,0,1,.141.281.376.376,0,0,1-.109.313l-.531.531a.347.347,0,0,1-.437.063.918.918,0,0,0-.344-.062h-1q-.281,0-.281.25a.218.218,0,0,0,.188.25L.938-7.75a2.026,2.026,0,0,1,.906.547,1.562,1.562,0,0,1,.438.922,1.724,1.724,0,0,1-.359,1.328A1.611,1.611,0,0,1,.75-4.312v.563a.487.487,0,0,1-.141.359A.487.487,0,0,1,.25-3.25h-.5a.487.487,0,0,1-.359-.141A.487.487,0,0,1-.75-3.75v-.562a2.289,2.289,0,0,1-1-.344.37.37,0,0,1-.141-.281.376.376,0,0,1,.109-.312l.531-.531a.347.347,0,0,1,.438-.062.918.918,0,0,0,.344.063h1q.281,0,.281-.25a.218.218,0,0,0-.187-.25ZM7-4a.9.9,0,0,1,.7.344,1.246,1.246,0,0,1,.3.844V.813a1.246,1.246,0,0,1-.3.844A.9.9,0,0,1,7,2H-7a.9.9,0,0,1-.7-.344A1.246,1.246,0,0,1-8,.813V-2.812a1.246,1.246,0,0,1,.3-.844A.9.9,0,0,1-7-4h1.094A6.634,6.634,0,0,1-6.75-7.25a6.5,6.5,0,0,1,1.984-4.766A6.5,6.5,0,0,1,0-14a6.5,6.5,0,0,1,4.766,1.984A6.5,6.5,0,0,1,6.75-7.25,6.634,6.634,0,0,1,5.906-4ZM3.688-10.937A4.977,4.977,0,0,0,0-12.5a5.052,5.052,0,0,0-3.7,1.547A5.052,5.052,0,0,0-5.25-7.25,5.052,5.052,0,0,0-3.7-3.547,5.052,5.052,0,0,0,0-2,5.052,5.052,0,0,0,3.7-3.547,5.052,5.052,0,0,0,5.25-7.25,4.977,4.977,0,0,0,3.688-10.937ZM6.5.5v-3H4.781a5.991,5.991,0,0,1-1.25,1H4.75A.221.221,0,0,1,5-1.25v.5a.221.221,0,0,1-.25.25h-9.5A.221.221,0,0,1-5-.75v-.5a.221.221,0,0,1,.25-.25h1.219a5.991,5.991,0,0,1-1.25-1H-6.5v3Z" transform="translate(8 14)" fill="#fff"/>
</svg>
