<svg xmlns="http://www.w3.org/2000/svg" viewBox="0 0 14.531 14.531">
  <path id="Pending-icon" d="M2.344-10.752A7.027,7.027,0,0,1,7.5-12.891a7,7,0,0,1,5.142,2.124,7,7,0,0,1,2.124,5.142A7,7,0,0,1,12.642-.483,7,7,0,0,1,7.5,1.641,7,7,0,0,1,2.358-.483,7,7,0,0,1,.234-5.625,6.979,6.979,0,0,1,2.344-10.752Zm1,9.287A5.721,5.721,0,0,0,7.5.234a5.647,5.647,0,0,0,4.146-1.714,5.647,5.647,0,0,0,1.714-4.146,5.647,5.647,0,0,0-1.714-4.146A5.647,5.647,0,0,0,7.5-11.484,5.647,5.647,0,0,0,3.354-9.771,5.647,5.647,0,0,0,1.641-5.625,5.721,5.721,0,0,0,3.34-1.465ZM9.316-2.812,6.826-4.629a.361.361,0,0,1-.146-.293v-4.8a.311.311,0,0,1,.352-.352h.938a.311.311,0,0,1,.352.352v4.16L10.283-4.16a.324.324,0,0,1,.059.5L9.814-2.9A.316.316,0,0,1,9.316-2.812Z" transform="translate(-0.234 12.891)" fill="#fd5a7f"/>
</svg>
