<svg xmlns="http://www.w3.org/2000/svg"  viewBox="0 0 15.75 15.75">
  <path id="price-icon" d="M31.461,8.758a2.122,2.122,0,0,1,1.143.826,2.278,2.278,0,0,1,.439,1.354,2.259,2.259,0,0,1-2.074,2.25v.844a.249.249,0,0,1-.281.281H29.563a.249.249,0,0,1-.281-.281v-.879a2.585,2.585,0,0,1-1.617-.633.264.264,0,0,1,0-.422l.844-.773a.2.2,0,0,1,.316-.035,1.185,1.185,0,0,0,.668.211h1.336a.451.451,0,0,0,.352-.158.586.586,0,0,0,.141-.4.547.547,0,0,0-.352-.562l-2.18-.633a2.122,2.122,0,0,1-1.143-.826,2.278,2.278,0,0,1-.439-1.354,2.259,2.259,0,0,1,2.074-2.25V4.469a.249.249,0,0,1,.281-.281h1.125a.249.249,0,0,1,.281.281v.879a2.884,2.884,0,0,1,1.617.633.264.264,0,0,1,0,.422l-.844.773a.2.2,0,0,1-.316.035A1.185,1.185,0,0,0,30.758,7H29.422a.506.506,0,0,0-.369.158.6.6,0,0,0,.229.967Zm4.57-7.383a1.9,1.9,0,0,1,1.389.58A1.9,1.9,0,0,1,38,3.344V15.156a1.981,1.981,0,0,1-1.969,1.969H24.219a1.981,1.981,0,0,1-1.969-1.969V3.344a1.9,1.9,0,0,1,.58-1.389,1.9,1.9,0,0,1,1.389-.58Zm.281,13.781V3.344a.249.249,0,0,0-.281-.281H24.219a.249.249,0,0,0-.281.281V15.156a.249.249,0,0,0,.281.281H36.031A.249.249,0,0,0,36.313,15.156Z" transform="translate(-22.25 -1.375)" fill="#7045df"/>
</svg>
