<svg xmlns="http://www.w3.org/2000/svg"  viewBox="0 0 20.25 13.5">
  <path id="quantity-icon" d="M31.813,7.563H23.938v3.375h7.875Zm.844-1.687a.84.84,0,0,1,.844.844v5.063a.84.84,0,0,1-.844.844H23.094a.84.84,0,0,1-.844-.844V6.719a.84.84,0,0,1,.844-.844Zm5.063,1.969a1.406,1.406,0,1,0,0,2.813H38v3.656A1.68,1.68,0,0,1,36.313,16H19.438a1.68,1.68,0,0,1-1.687-1.687V10.656h.281a1.406,1.406,0,1,0,0-2.812H17.75V4.188A1.68,1.68,0,0,1,19.438,2.5H36.313A1.68,1.68,0,0,1,38,4.188V7.844ZM36.313,6.508V4.188H19.438v2.32a3.077,3.077,0,0,1,1.23,4.359,3,3,0,0,1-1.23,1.125v2.32H36.313v-2.32a3.077,3.077,0,0,1-1.23-4.359A3,3,0,0,1,36.313,6.508Z" transform="translate(-17.75 -2.5)" fill="#7045df"/>
</svg>
