<svg xmlns="http://www.w3.org/2000/svg" viewBox="0 0 13.5 18">
  <path id="service-icon" d="M34.906,14.313a.249.249,0,0,1,.281.281v.563a.249.249,0,0,1-.281.281H32.094a.249.249,0,0,1-.281-.281v-.562a.249.249,0,0,1,.281-.281ZM27.313,8.688a.542.542,0,0,1,.563-.562h6.75a.542.542,0,0,1,.563.563v3.375a.542.542,0,0,1-.562.563h-6.75a.542.542,0,0,1-.562-.562Zm1.125.563V11.5h5.625V9.25ZM37.508,3.7A1.627,1.627,0,0,1,38,4.891V16.563a1.68,1.68,0,0,1-1.687,1.688H26.188A1.68,1.68,0,0,1,24.5,16.563V1.938a1.629,1.629,0,0,1,.229-.844,1.72,1.72,0,0,1,.615-.615A1.629,1.629,0,0,1,26.188.25h7.172a1.627,1.627,0,0,1,1.2.492ZM33.5,2.078V4.75h2.672Zm2.813,14.484V6.438H32.656a.84.84,0,0,1-.844-.844V1.938H26.188V16.563ZM27.594,4.188a.249.249,0,0,1-.281-.281V3.344a.249.249,0,0,1,.281-.281h2.813a.249.249,0,0,1,.281.281v.563a.249.249,0,0,1-.281.281Zm0,2.25a.249.249,0,0,1-.281-.281V5.594a.249.249,0,0,1,.281-.281h2.813a.249.249,0,0,1,.281.281v.563a.249.249,0,0,1-.281.281Z" transform="translate(-24.5 -0.25)" fill="#7045df"/>
</svg>
