<svg xmlns="http://www.w3.org/2000/svg"  viewBox="0 0 15.5 15.5">
  <path id="location-icon" d="M2.5,2.531A7.5,7.5,0,0,1,8,.25a7.47,7.47,0,0,1,5.484,2.266A7.47,7.47,0,0,1,15.75,8a7.47,7.47,0,0,1-2.266,5.484A7.47,7.47,0,0,1,8,15.75a7.47,7.47,0,0,1-5.484-2.266A7.47,7.47,0,0,1,.25,8,7.445,7.445,0,0,1,2.5,2.531Zm1.063,9.906A6.1,6.1,0,0,0,8,14.25a6.024,6.024,0,0,0,4.422-1.828A6.024,6.024,0,0,0,14.25,8a6.024,6.024,0,0,0-1.828-4.422A6.024,6.024,0,0,0,8,1.75,6.024,6.024,0,0,0,3.578,3.578,6.024,6.024,0,0,0,1.75,8,6.1,6.1,0,0,0,3.563,12.438ZM9.938,11,7.281,9.063a.385.385,0,0,1-.156-.312V3.625A.331.331,0,0,1,7.5,3.25h1a.331.331,0,0,1,.375.375V8.063l2.094,1.5a.345.345,0,0,1,.063.531l-.562.813A.337.337,0,0,1,9.938,11Z" transform="translate(-0.25 -0.25)" fill="#7045df"/>
</svg>
