<?xml version="1.0" encoding="utf-8"?>
<!-- Generator: Adobe Illustrator 23.0.5, SVG Export Plug-In . SVG Version: 6.00 Build 0)  -->
<svg version="1.1" id="Layer_1" xmlns="http://www.w3.org/2000/svg" xmlns:xlink="http://www.w3.org/1999/xlink" x="0px" y="0px"
	 viewBox="0 0 16 16" style="enable-background:new 0 0 16 16;" xml:space="preserve">
<style type="text/css">
	.st0{fill:#25222D;}
</style>
<g>
	<path class="st0" d="M14.3,9.8h-3.7V7.6h4.1L8,0L2,7.6h3.5v2.1H1.7c-0.8,0-1.4,0.6-1.4,1.4v3.4c0,0.8,0.6,1.4,1.4,1.4h12.7
		c0.8,0,1.4-0.6,1.4-1.4v-3.4C15.8,10.4,15.1,9.8,14.3,9.8z M4.1,6.6l3.9-5l4.4,5H9.6v5.7h-3V6.6H4.1z M14.7,14.6
		c0,0.2-0.2,0.4-0.4,0.4H1.7c-0.2,0-0.4-0.2-0.4-0.4v-3.4c0-0.2,0.2-0.4,0.4-0.4h3.9v2.5h5.1v-2.5h3.7c0.2,0,0.4,0.2,0.4,0.4V14.6z"
		/>
	<rect x="12.6" y="11.8" class="st0" width="1" height="2.1"/>
</g>
</svg>
