<svg xmlns="http://www.w3.org/2000/svg" width="28.125" height="18.75" viewBox="0 0 28.125 18.75">
  <path id="video-icon" d="M12.5-17.187a1.544,1.544,0,0,1,1.1.439,1.479,1.479,0,0,1,.464,1.123v12.5A1.479,1.479,0,0,1,13.6-2a1.544,1.544,0,0,1-1.1.439,1.428,1.428,0,0,1-.879-.293L6.25-5.176v2.832a2.187,2.187,0,0,1-.732,1.66A2.548,2.548,0,0,1,3.711,0H-11.523A2.548,2.548,0,0,1-13.33-.684a2.187,2.187,0,0,1-.732-1.66V-16.406a2.187,2.187,0,0,1,.732-1.66,2.548,2.548,0,0,1,1.807-.684H3.711a2.548,2.548,0,0,1,1.807.684,2.187,2.187,0,0,1,.732,1.66v2.832l5.371-3.32A1.428,1.428,0,0,1,12.5-17.187ZM3.906-12.109v-4.248a.283.283,0,0,0-.2-.049H-11.523a.433.433,0,0,0-.2.049V-2.393a.283.283,0,0,0,.2.049H3.711a.433.433,0,0,0,.2-.049Zm7.813,7.568v-9.668L6.25-10.791v2.832Z" transform="translate(14.063 18.75)" fill="#fff"/>
</svg>
