<svg id="video" xmlns="http://www.w3.org/2000/svg" width="49.731" height="56.509" viewBox="0 0 49.731 56.509">
  <path id="Path_3899" data-name="Path 3899" d="M48.627,22.811H10.973L47.141,12.333a1.1,1.1,0,0,0,.753-1.367L46,4.432A6.178,6.178,0,0,0,40.092,0a6.115,6.115,0,0,0-1.7.242L4.434,10.079A6.157,6.157,0,0,0,.244,17.687l1.849,6.383v26.3a6.149,6.149,0,0,0,6.142,6.142H21.5a1.1,1.1,0,0,0,0-2.207H8.235A3.939,3.939,0,0,1,4.3,50.367V35.347H47.524v15.02A3.939,3.939,0,0,1,43.589,54.3H30.327a1.1,1.1,0,1,0,0,2.207H43.589a6.149,6.149,0,0,0,6.142-6.142V23.914A1.1,1.1,0,0,0,48.627,22.811ZM29.166,33.14l4.689-8.122h6.1L35.266,33.14Zm-8.648,0,4.689-8.122h6.1L26.617,33.14Zm-8.648,0,4.689-8.122h6.1L17.969,33.14Zm4.1-14.288L8.12,11.309,14,9.605a1.1,1.1,0,0,0,.145.17L22,17.318l-5.884,1.7A1.1,1.1,0,0,0,15.973,18.851ZM30.762,4.963,38.615,12.5l-5.884,1.7a1.075,1.075,0,0,0-.145-.17L24.734,6.5l5.884-1.7A1.1,1.1,0,0,0,30.762,4.963ZM22.455,7.369l7.853,7.542-5.884,1.7a1.075,1.075,0,0,0-.145-.17L16.427,8.9l5.884-1.7A1.166,1.166,0,0,0,22.455,7.369ZM39.006,2.362a3.9,3.9,0,0,1,1.086-.155,3.96,3.96,0,0,1,3.789,2.839l1.586,5.473L41.038,11.8a1.122,1.122,0,0,0-.145-.17L33.041,4.091ZM2.7,14.083A3.906,3.906,0,0,1,5.049,12.2l.648-.188a1.123,1.123,0,0,0,.145.17l7.853,7.542L3.95,22.547,2.364,17.074A3.907,3.907,0,0,1,2.7,14.083ZM4.3,25.018H14.01L9.321,33.14H4.3ZM37.814,33.14,42.5,25.018h5.02V33.14Zm0,0" transform="translate(0)" fill="#fd5a7f" fill-rule="evenodd"/>
  <path id="Path_3900" data-name="Path 3900" d="M207.97,351.093a1.1,1.1,0,0,0-.552-.956l-9.7-5.6a1.1,1.1,0,0,0-1.656.956v11.2a1.1,1.1,0,0,0,1.656.955l9.7-5.6A1.1,1.1,0,0,0,207.97,351.093Zm-9.7,3.687v-7.373l6.385,3.687Zm0,0" transform="translate(-174.427 -306.382)" fill="#fd5a7f" fill-rule="evenodd"/>
  <path id="Path_3901" data-name="Path 3901" d="M225.877,492a1.1,1.1,0,1,0,1.1,1.1A1.106,1.106,0,0,0,225.877,492Zm0,0" transform="translate(-199.965 -437.699)" fill="#fd5a7f" fill-rule="evenodd"/>
</svg>
