<svg xmlns="http://www.w3.org/2000/svg" viewBox="0 0 23.438 18.761">
  <path id="Path_80" data-name="Path 80" d="M-106.494-18.408a1.087,1.087,0,0,1,1.27-.244,1.07,1.07,0,0,1,.732,1.074V-1.172A1.07,1.07,0,0,1-105.225-.1a1.087,1.087,0,0,1-1.27-.244l-4.346-4.346h-4.98a1.13,1.13,0,0,1-.83-.342,1.13,1.13,0,0,1-.342-.83v-7.031a1.13,1.13,0,0,1,.342-.83,1.13,1.13,0,0,1,.83-.342h4.98Zm11.816,4.688a8.735,8.735,0,0,1,1.123,4.346A9.026,9.026,0,0,1-94.653-5a8.482,8.482,0,0,1-3.1,3.247,1.076,1.076,0,0,1-.9.171,1.146,1.146,0,0,1-.708-.513,1.269,1.269,0,0,1-.146-.9,1.186,1.186,0,0,1,.537-.757,6.653,6.653,0,0,0,1.636-1.465,6.361,6.361,0,0,0,1.074-1.953,6.765,6.765,0,0,0,.366-2.2,6.765,6.765,0,0,0-.366-2.2,6.361,6.361,0,0,0-1.074-1.953,6.653,6.653,0,0,0-1.636-1.465,1.186,1.186,0,0,1-.537-.757,1.193,1.193,0,0,1,.146-.879,1.131,1.131,0,0,1,.732-.537.994.994,0,0,1,.879.171A8.257,8.257,0,0,1-94.678-13.721Zm-5.811.586a4.5,4.5,0,0,1,1.636,1.587,4.1,4.1,0,0,1,.61,2.173,4.1,4.1,0,0,1-.61,2.173,4.5,4.5,0,0,1-1.636,1.587,1.029,1.029,0,0,1-.879.1,1.129,1.129,0,0,1-.708-.562,1.176,1.176,0,0,1-.1-.879,1.108,1.108,0,0,1,.562-.708,1.863,1.863,0,0,0,1.025-1.709,1.863,1.863,0,0,0-1.025-1.709,1.108,1.108,0,0,1-.562-.708,1.176,1.176,0,0,1,.1-.879,1.129,1.129,0,0,1,.708-.562A1.029,1.029,0,0,1-100.488-13.135Z" transform="translate(116.992 18.756)" fill="#fff"/>
</svg>
